<?xml version="1.0" encoding="UTF-8"?>
<svg id="Layer_1" xmlns="http://www.w3.org/2000/svg" version="1.1" viewBox="0 0 196 81">
  <!-- Generator: Adobe Illustrator 29.0.1, SVG Export Plug-In . SVG Version: 2.1.0 Build 192)  -->
  <defs>
    <style>
      .st0 {
        fill: #010101;
      }

      .st1 {
        fill: #fff;
      }

      .st2 {
        fill: #6cbe55;
      }

      .st3 {
        fill: #fedd0f;
      }

      .st4 {
        fill: #1f4397;
      }
    </style>
  </defs>
  <path class="st1" d="M107.2,32.1l-28.1-14.4h8.8L53.9.4,19.8,17.8h9.2L1,32.2h16.2v11.1c0,0,0,.2,0,.3h0c0,20.4,16.6,37,37,37s37-16.6,37-37v-11.5h16.1Z"/>
  <path class="st2" d="M31.8,14.9L54,3.6l22,11.2h-6.1v58.6s-6.6,3.9-16,3.9-15.8-4-15.8-4V14.9h-6.2Z"/>
  <path class="st4" d="M72.1,17.4v54.8c9.6-6,16-16.7,16-28.9v-2.3s0-1.8,0-1.8v-9.9h7.1l-23.2-11.8Z"/>
  <path class="st3" d="M12.9,29.3h7.2v14.2c0,2,.2,4.1.6,6,1.7,9.5,7.4,17.6,15.2,22.6V17.5l-23,11.8Z"/>
  <path class="st4" d="M114.1,49.4v-19.7h9.1c3.6,0,5.7,2.4,5.7,6.3s-2.1,6.4-5.7,6.4h-4.3v7h-4.8ZM118.9,38.2h3.4c.9,0,1.8-.6,1.8-2.1s-.9-2.2-1.8-2.2h-3.4v4.3Z"/>
  <path class="st4" d="M132,47.9c-1.4-1.3-2.2-3-2.2-5.2v-6.2c0-2.2.7-4,2.1-5.3,1.4-1.3,3.4-1.9,5.8-1.9s4.4.6,5.8,1.9c1.4,1.3,2.2,3,2.2,5.3v6.2c0,2.2-.7,4-2.2,5.2-1.4,1.3-3.4,1.9-5.8,1.9s-4.4-.6-5.8-1.9M141,36.2c0-1.3-1-2.5-3.1-2.5s-3.1,1.2-3.1,2.5v6.7c0,1.3,1,2.5,3.1,2.5s3.1-1.2,3.1-2.5v-6.7Z"/>
  <path class="st4" d="M147.9,49.4v-19.7h8.6c4.2,0,6.4,2.3,6.4,6.2s-1,4.5-3,5.7l3.6,6.2v1.6h-4.7l-4-7.2h-2v7.2h-4.8ZM152.8,38.2h3c1.5,0,2.3-.6,2.3-2.2s-.7-2.1-2.3-2.1h-3v4.3Z"/>
  <polygon class="st4" points="168.4 49.4 168.4 33.9 163.2 33.9 163.2 29.7 178.5 29.7 178.5 33.9 173.3 33.9 173.3 49.4 168.4 49.4"/>
  <path class="st4" d="M180.9,47.9c-1.4-1.3-2.2-3-2.2-5.2v-6.2c0-2.2.7-4,2.1-5.3,1.4-1.3,3.4-1.9,5.8-1.9s4.4.6,5.8,1.9c1.4,1.3,2.2,3,2.2,5.3v6.2c0,2.2-.7,4-2.2,5.2-1.4,1.3-3.4,1.9-5.8,1.9s-4.4-.6-5.8-1.9M189.8,36.2c0-1.3-1-2.5-3.1-2.5s-3.1,1.2-3.1,2.5v6.7c0,1.3,1,2.5,3.1,2.5s3.1-1.2,3.1-2.5v-6.7Z"/>
  <polygon class="st4" points="120.3 72.3 113.8 54.2 113.8 52.6 118.4 52.6 122.8 65.8 127 52.6 131.6 52.6 131.6 54.2 125.1 72.3 120.3 72.3"/>
  <polygon class="st4" points="132.3 72.3 132.3 52.6 145.4 52.6 145.4 56.8 137.1 56.8 137.1 60.4 144.1 60.4 144.1 64.4 137.1 64.4 137.1 68 145.5 68 145.5 72.3 132.3 72.3"/>
  <polygon class="st4" points="147.4 72.3 147.4 52.6 152.2 52.6 152.2 68 160.6 68 160.6 72.3 147.4 72.3"/>
  <polygon class="st4" points="161.3 72.3 161.3 52.6 166.2 52.6 166.2 60.3 172.1 60.3 172.1 52.6 176.9 52.6 176.9 72.3 172.1 72.3 172.1 64.5 166.2 64.5 166.2 72.3 161.3 72.3"/>
  <path class="st4" d="M181.2,70.8c-1.4-1.3-2.2-3-2.2-5.2v-6.2c0-2.2.7-4,2.1-5.3,1.4-1.3,3.4-1.9,5.8-1.9s4.4.6,5.8,1.9c1.4,1.3,2.2,3,2.2,5.3v6.2c0,2.2-.7,4-2.2,5.2-1.4,1.3-3.4,1.9-5.8,1.9s-4.4-.6-5.8-1.9M190.2,59.1c0-1.3-1-2.5-3.1-2.5s-3.1,1.2-3.1,2.5v6.7c0,1.3,1,2.5,3.1,2.5s3.1-1.2,3.1-2.5v-6.7Z"/>
  <path class="st0" d="M114.2,22.8v-2.8c0-2,1.2-3.1,3.3-3.1s1.6.2,2.2.8c.6.5.9,1.2.9,2.2h0c0,.1-1.1.1-1.1.1h0c0-.8-.2-1.2-.6-1.6-.4-.3-.9-.5-1.5-.5-1.4,0-2.2.8-2.2,2.1v2.9c0,1.3.8,2.1,2.2,2.1s1-.2,1.5-.5c.4-.3.6-.8.6-1.4h0c0-.1,1.1-.1,1.1-.1h0c0,1.1-.3,1.8-.9,2.3-.6.5-1.3.8-2.2.8-2.1,0-3.3-1.1-3.3-3.1"/>
  <rect class="st0" x="125" y="17.1" width="1.1" height="8.6"/>
  <path class="st0" d="M130.9,25.7v-8.6h3c2,0,3.3,1.1,3.3,3v2.6c0,1.9-1.3,3-3.3,3h-3ZM132,24.8h1.9c1.4,0,2.2-.8,2.2-2v-2.7c0-1.2-.8-2-2.2-2h-1.9v6.7Z"/>
  <path class="st0" d="M140.9,25.7v-.4l3.2-8.3h1.1l3.2,8.3v.4h-1.1l-.9-2.3h-3.7l-.9,2.3h-1ZM143.1,22.5h3.1l-1.5-4-1.5,4Z"/>
  <path class="st0" d="M152.3,25.7v-8.6h3c2,0,3.3,1.1,3.3,3v2.6c0,1.9-1.3,3-3.3,3h-3ZM153.4,24.8h1.9c1.4,0,2.2-.8,2.2-2v-2.7c0-1.2-.8-2-2.2-2h-1.9v6.7Z"/>
  <polygon class="st0" points="163.2 25.7 163.2 17.1 168.5 17.1 168.5 18 164.2 18 164.2 20.9 168 20.9 168 21.9 164.2 21.9 164.2 24.8 168.5 24.8 168.5 25.7 163.2 25.7"/>
  <path class="st0" d="M178.4,25.7v-8.6h3c2,0,3.3,1.1,3.3,3v2.6c0,1.9-1.3,3-3.3,3h-3ZM179.5,24.8h1.9c1.4,0,2.2-.8,2.2-2v-2.7c0-1.2-.8-2-2.2-2h-1.9v6.7Z"/>
  <polygon class="st0" points="189.2 25.7 189.2 17.1 194.6 17.1 194.6 18 190.3 18 190.3 20.9 194 20.9 194 21.9 190.3 21.9 190.3 24.8 194.6 24.8 194.6 25.7 189.2 25.7"/>
</svg>